# xmcd
#
# Track frame offsets:
#	150
#	9660
#	20015
#	35675
#	49610
#	61312
#	71672
#	83975
#	95562
#	108147
#	121975
#	133977
#	144412
#	158625
#	172215
#	184865
#
# Disc length: 2743 seconds
#
# Revision: 1
# Processed by: cddbd v1.5.2PL0 Copyright (c) Steve Scherf et al.
# Submitted via: CDmax 1.8
#
DISCID=e10ab510
DTITLE=Sampler - Gala der Weltstars CD 2
DYEAR=1997
DGENRE=Blues
TTITLE0=Sam Cooke Wonderful world
TTITLE1=Pat Boone Love letters in the sand
TTITLE2=Englebert Please release me (Let me go)
TTITLE3=Al Martino Spanish eyes
TTITLE4=Paul Anka Put your head on my shoulders
TTITLE5=Connie Francis Lipstick on your collar
TTITLE6=Dean Martin Everybody loves somebody
TTITLE7=Fats Domino Blueberry hill
TTITLE8=Judy Garland Over the rainbow
TTITLE9=Harry Belafonte Banana boat sond (Day-O)
TTITLE10=Dean Martin and Sammy Davis jr. Sam´s song
TTITLE11=Ray Charles I wonder who´s kissing her now
TTITLE12=Ella Fitzgerald My heart belongs to daddy
TTITLE13=Dooley Wilson As times go by
TTITLE14=Sarah Vaughan What a difference a day made
TTITLE15=Mahalia Jackson Down by the riverside
EXTD=
EXTT0=
EXTT1=
EXTT2=
EXTT3=
EXTT4=
EXTT5=
EXTT6=
EXTT7=
EXTT8=
EXTT9=
EXTT10=
EXTT11=
EXTT12=
EXTT13=
EXTT14=
EXTT15=
PLAYORDER=
